<mxfile host="app.diagrams.net" modified="2021-11-08T10:52:53.673Z" agent="5.0 (Windows NT 10.0; Win64; x64) AppleWebKit/537.36 (KHTML, like Gecko) Chrome/95.0.4638.69 Safari/537.36" etag="8W6q-3EY6mZAcpDfwEtb" version="15.7.0" type="github">
  <diagram id="5FJou0VoKtctPPcMsMXU" name="Page-1">
    <mxGraphModel dx="1038" dy="579" grid="1" gridSize="10" guides="1" tooltips="1" connect="1" arrows="1" fold="1" page="1" pageScale="1" pageWidth="850" pageHeight="1100" math="0" shadow="0">
      <root>
        <mxCell id="0" />
        <mxCell id="1" parent="0" />
        <mxCell id="t7Jry5lnLoS1j9qCJ-sH-2" value="" style="edgeStyle=orthogonalEdgeStyle;startArrow=none;endArrow=none;rounded=0;targetPortConstraint=eastwest;sourcePortConstraint=northsouth;sketch=1;fillColor=#f5f5f5;strokeColor=default;shadow=0;fontFamily=Comic Sans MS;fontStyle=1" parent="1" target="t7Jry5lnLoS1j9qCJ-sH-4" edge="1">
          <mxGeometry relative="1" as="geometry">
            <mxPoint x="480" y="290" as="sourcePoint" />
          </mxGeometry>
        </mxCell>
        <mxCell id="t7Jry5lnLoS1j9qCJ-sH-3" value="" style="edgeStyle=orthogonalEdgeStyle;startArrow=none;endArrow=none;rounded=0;targetPortConstraint=eastwest;sourcePortConstraint=northsouth;sketch=1;fillColor=#f5f5f5;strokeColor=default;shadow=0;fontFamily=Comic Sans MS;fontStyle=1" parent="1" target="t7Jry5lnLoS1j9qCJ-sH-5" edge="1">
          <mxGeometry relative="1" as="geometry">
            <mxPoint x="480" y="290" as="sourcePoint" />
            <Array as="points">
              <mxPoint x="480" y="240" />
            </Array>
          </mxGeometry>
        </mxCell>
        <mxCell id="t7Jry5lnLoS1j9qCJ-sH-4" value="King Amoeba" style="whiteSpace=wrap;html=1;align=center;verticalAlign=middle;treeFolding=1;treeMoving=1;sketch=1;fillColor=#f5f5f5;strokeColor=default;shadow=0;fontColor=#333333;fontFamily=Comic Sans MS;fontStyle=1" parent="1" vertex="1" collapsed="1">
          <mxGeometry x="320" y="210" width="100" height="60" as="geometry" />
        </mxCell>
        <mxCell id="t7Jry5lnLoS1j9qCJ-sH-5" value="Queen Mildew" style="whiteSpace=wrap;html=1;align=center;verticalAlign=middle;treeFolding=1;treeMoving=1;sketch=1;fillColor=#f5f5f5;strokeColor=default;shadow=0;fontColor=#333333;fontFamily=Comic Sans MS;fontStyle=1" parent="1" vertex="1">
          <mxGeometry x="540" y="210" width="100" height="60" as="geometry" />
        </mxCell>
        <mxCell id="t7Jry5lnLoS1j9qCJ-sH-6" style="edgeStyle=orthogonalEdgeStyle;rounded=0;orthogonalLoop=1;jettySize=auto;html=1;exitX=0.5;exitY=1;exitDx=0;exitDy=0;sketch=1;fillColor=#f5f5f5;strokeColor=default;shadow=0;fontFamily=Comic Sans MS;fontStyle=1" parent="1" source="t7Jry5lnLoS1j9qCJ-sH-5" target="t7Jry5lnLoS1j9qCJ-sH-5" edge="1">
          <mxGeometry relative="1" as="geometry" />
        </mxCell>
        <mxCell id="t7Jry5lnLoS1j9qCJ-sH-7" value="" style="edgeStyle=orthogonalEdgeStyle;startArrow=none;endArrow=none;rounded=0;targetPortConstraint=eastwest;sourcePortConstraint=northsouth;sketch=1;fillColor=#f5f5f5;strokeColor=default;shadow=0;fontFamily=Comic Sans MS;fontStyle=1" parent="1" source="t7Jry5lnLoS1j9qCJ-sH-12" target="t7Jry5lnLoS1j9qCJ-sH-9" edge="1">
          <mxGeometry relative="1" as="geometry">
            <mxPoint x="670" y="400" as="sourcePoint" />
            <Array as="points">
              <mxPoint x="650" y="340" />
            </Array>
          </mxGeometry>
        </mxCell>
        <mxCell id="t7Jry5lnLoS1j9qCJ-sH-8" value="" style="edgeStyle=orthogonalEdgeStyle;startArrow=none;endArrow=none;rounded=0;targetPortConstraint=eastwest;sourcePortConstraint=northsouth;sketch=1;fillColor=#f5f5f5;strokeColor=default;shadow=0;fontFamily=Comic Sans MS;fontStyle=1" parent="1" source="t7Jry5lnLoS1j9qCJ-sH-12" edge="1">
          <mxGeometry relative="1" as="geometry">
            <mxPoint x="670" y="400" as="sourcePoint" />
            <Array as="points">
              <mxPoint x="650" y="340" />
            </Array>
            <mxPoint x="690" y="340" as="targetPoint" />
          </mxGeometry>
        </mxCell>
        <mxCell id="t7Jry5lnLoS1j9qCJ-sH-36" style="edgeStyle=orthogonalEdgeStyle;rounded=0;orthogonalLoop=1;jettySize=auto;html=1;endArrow=none;endFill=0;sketch=1;fillColor=#f5f5f5;strokeColor=default;shadow=0;fontFamily=Comic Sans MS;fontStyle=1" parent="1" source="t7Jry5lnLoS1j9qCJ-sH-9" edge="1">
          <mxGeometry relative="1" as="geometry">
            <mxPoint x="500" y="290" as="targetPoint" />
            <Array as="points">
              <mxPoint x="560" y="290" />
            </Array>
          </mxGeometry>
        </mxCell>
        <mxCell id="t7Jry5lnLoS1j9qCJ-sH-9" value="Prince Callous" style="whiteSpace=wrap;html=1;align=center;verticalAlign=middle;treeFolding=1;treeMoving=1;sketch=1;fillColor=#f5f5f5;strokeColor=default;shadow=0;fontColor=#333333;fontFamily=Comic Sans MS;fontStyle=1" parent="1" vertex="1" collapsed="1">
          <mxGeometry x="510" y="310" width="100" height="60" as="geometry" />
        </mxCell>
        <mxCell id="t7Jry5lnLoS1j9qCJ-sH-10" value="Prince Dingus" style="whiteSpace=wrap;html=1;align=center;verticalAlign=middle;treeFolding=1;treeMoving=1;sketch=1;fillColor=#f5f5f5;strokeColor=default;shadow=0;fontColor=#333333;fontFamily=Comic Sans MS;fontStyle=1" parent="1" vertex="1">
          <mxGeometry x="690" y="310" width="100" height="60" as="geometry" />
        </mxCell>
        <mxCell id="t7Jry5lnLoS1j9qCJ-sH-11" style="edgeStyle=orthogonalEdgeStyle;rounded=0;orthogonalLoop=1;jettySize=auto;html=1;exitX=0.5;exitY=1;exitDx=0;exitDy=0;sketch=1;fillColor=#f5f5f5;strokeColor=default;shadow=0;fontFamily=Comic Sans MS;fontStyle=1" parent="1" source="t7Jry5lnLoS1j9qCJ-sH-10" target="t7Jry5lnLoS1j9qCJ-sH-10" edge="1">
          <mxGeometry relative="1" as="geometry" />
        </mxCell>
        <mxCell id="t7Jry5lnLoS1j9qCJ-sH-12" value="Carl" style="whiteSpace=wrap;html=1;align=center;verticalAlign=middle;treeFolding=1;treeMoving=1;sketch=1;fillColor=#f5f5f5;strokeColor=default;shadow=0;fontColor=#333333;fontFamily=Comic Sans MS;fontStyle=1" parent="1" vertex="1" collapsed="1">
          <mxGeometry x="600" y="400" width="100" height="60" as="geometry" />
        </mxCell>
        <mxCell id="t7Jry5lnLoS1j9qCJ-sH-19" value="" style="edgeStyle=orthogonalEdgeStyle;startArrow=none;endArrow=none;rounded=0;targetPortConstraint=eastwest;sourcePortConstraint=northsouth;sketch=1;fillColor=#f5f5f5;strokeColor=default;shadow=0;fontFamily=Comic Sans MS;fontStyle=1" parent="1" target="t7Jry5lnLoS1j9qCJ-sH-21" edge="1">
          <mxGeometry relative="1" as="geometry">
            <mxPoint x="310" y="400" as="sourcePoint" />
          </mxGeometry>
        </mxCell>
        <mxCell id="t7Jry5lnLoS1j9qCJ-sH-20" value="" style="edgeStyle=orthogonalEdgeStyle;startArrow=none;endArrow=none;rounded=0;targetPortConstraint=eastwest;sourcePortConstraint=northsouth;sketch=1;fillColor=#f5f5f5;strokeColor=default;shadow=0;fontFamily=Comic Sans MS;fontStyle=1" parent="1" target="t7Jry5lnLoS1j9qCJ-sH-22" edge="1">
          <mxGeometry relative="1" as="geometry">
            <mxPoint x="290" y="400" as="sourcePoint" />
            <Array as="points">
              <mxPoint x="310" y="400" />
              <mxPoint x="310" y="340" />
            </Array>
          </mxGeometry>
        </mxCell>
        <mxCell id="t7Jry5lnLoS1j9qCJ-sH-21" value="Yorick" style="whiteSpace=wrap;html=1;align=center;verticalAlign=middle;treeFolding=1;treeMoving=1;sketch=1;fillColor=#f5f5f5;strokeColor=default;shadow=0;fontColor=#333333;fontFamily=Comic Sans MS;fontStyle=1" parent="1" vertex="1" collapsed="1">
          <mxGeometry x="170" y="310" width="100" height="60" as="geometry" />
        </mxCell>
        <mxCell id="t7Jry5lnLoS1j9qCJ-sH-35" style="edgeStyle=orthogonalEdgeStyle;rounded=0;orthogonalLoop=1;jettySize=auto;html=1;endArrow=none;endFill=0;exitX=0.5;exitY=0;exitDx=0;exitDy=0;sketch=1;fillColor=#f5f5f5;strokeColor=default;shadow=0;fontFamily=Comic Sans MS;fontStyle=1" parent="1" source="t7Jry5lnLoS1j9qCJ-sH-22" edge="1">
          <mxGeometry relative="1" as="geometry">
            <mxPoint x="500" y="290" as="targetPoint" />
            <Array as="points">
              <mxPoint x="400" y="290" />
            </Array>
          </mxGeometry>
        </mxCell>
        <mxCell id="t7Jry5lnLoS1j9qCJ-sH-22" value="Princess Tusla" style="whiteSpace=wrap;html=1;align=center;verticalAlign=middle;treeFolding=1;treeMoving=1;sketch=1;fillColor=#f5f5f5;strokeColor=default;shadow=0;fontColor=#333333;fontFamily=Comic Sans MS;fontStyle=1" parent="1" vertex="1">
          <mxGeometry x="350" y="310" width="100" height="60" as="geometry" />
        </mxCell>
        <mxCell id="t7Jry5lnLoS1j9qCJ-sH-23" style="edgeStyle=orthogonalEdgeStyle;rounded=0;orthogonalLoop=1;jettySize=auto;html=1;exitX=0.5;exitY=1;exitDx=0;exitDy=0;sketch=1;fillColor=#f5f5f5;strokeColor=default;shadow=0;fontFamily=Comic Sans MS;fontStyle=1" parent="1" source="t7Jry5lnLoS1j9qCJ-sH-22" target="t7Jry5lnLoS1j9qCJ-sH-22" edge="1">
          <mxGeometry relative="1" as="geometry" />
        </mxCell>
        <mxCell id="t7Jry5lnLoS1j9qCJ-sH-24" value="Maw Tucket" style="whiteSpace=wrap;html=1;align=center;verticalAlign=middle;treeFolding=1;treeMoving=1;sketch=1;fillColor=#f5f5f5;strokeColor=default;shadow=0;fontColor=#333333;fontFamily=Comic Sans MS;fontStyle=1" parent="1" vertex="1" collapsed="1">
          <mxGeometry x="260" y="400" width="100" height="60" as="geometry" />
        </mxCell>
        <mxCell id="t7Jry5lnLoS1j9qCJ-sH-28" value="" style="edgeStyle=orthogonalEdgeStyle;startArrow=none;endArrow=none;rounded=0;targetPortConstraint=eastwest;sourcePortConstraint=northsouth;sketch=1;fillColor=#f5f5f5;strokeColor=default;shadow=0;fontFamily=Comic Sans MS;fontStyle=1" parent="1" source="t7Jry5lnLoS1j9qCJ-sH-33" edge="1">
          <mxGeometry relative="1" as="geometry">
            <mxPoint x="425" y="560" as="sourcePoint" />
            <mxPoint x="400" y="460" as="targetPoint" />
            <Array as="points">
              <mxPoint x="340" y="480" />
              <mxPoint x="400" y="480" />
            </Array>
          </mxGeometry>
        </mxCell>
        <mxCell id="t7Jry5lnLoS1j9qCJ-sH-38" style="edgeStyle=orthogonalEdgeStyle;rounded=0;orthogonalLoop=1;jettySize=auto;html=1;endArrow=none;endFill=0;sketch=1;fillColor=#f5f5f5;strokeColor=default;shadow=0;fontFamily=Comic Sans MS;fontStyle=1" parent="1" target="t7Jry5lnLoS1j9qCJ-sH-24" edge="1">
          <mxGeometry relative="1" as="geometry">
            <mxPoint x="430" y="430" as="sourcePoint" />
          </mxGeometry>
        </mxCell>
        <mxCell id="t7Jry5lnLoS1j9qCJ-sH-41" value="" style="edgeStyle=orthogonalEdgeStyle;rounded=0;sketch=1;orthogonalLoop=1;jettySize=auto;html=1;shadow=0;endArrow=none;endFill=0;fillColor=#f5f5f5;strokeColor=default;fontFamily=Comic Sans MS;fontStyle=1" parent="1" source="t7Jry5lnLoS1j9qCJ-sH-31" target="t7Jry5lnLoS1j9qCJ-sH-24" edge="1">
          <mxGeometry relative="1" as="geometry">
            <mxPoint x="430" y="430" as="sourcePoint" />
          </mxGeometry>
        </mxCell>
        <mxCell id="t7Jry5lnLoS1j9qCJ-sH-31" value="Billy Bob" style="whiteSpace=wrap;html=1;align=center;verticalAlign=middle;treeFolding=1;treeMoving=1;sketch=1;fillColor=#f5f5f5;strokeColor=default;shadow=0;fontColor=#333333;fontFamily=Comic Sans MS;fontStyle=1" parent="1" vertex="1">
          <mxGeometry x="440" y="400" width="100" height="60" as="geometry" />
        </mxCell>
        <mxCell id="t7Jry5lnLoS1j9qCJ-sH-32" style="edgeStyle=orthogonalEdgeStyle;rounded=0;orthogonalLoop=1;jettySize=auto;html=1;exitX=0.5;exitY=1;exitDx=0;exitDy=0;sketch=1;fillColor=#f5f5f5;strokeColor=default;shadow=0;fontFamily=Comic Sans MS;fontStyle=1" parent="1" source="t7Jry5lnLoS1j9qCJ-sH-31" target="t7Jry5lnLoS1j9qCJ-sH-31" edge="1">
          <mxGeometry relative="1" as="geometry" />
        </mxCell>
        <mxCell id="t7Jry5lnLoS1j9qCJ-sH-33" value="Sluggo" style="whiteSpace=wrap;html=1;align=center;verticalAlign=middle;treeFolding=1;treeMoving=1;sketch=1;fillColor=#f5f5f5;strokeColor=default;shadow=0;fontColor=#333333;fontFamily=Comic Sans MS;fontStyle=1" parent="1" vertex="1" collapsed="1">
          <mxGeometry x="280" y="502.5" width="100" height="60" as="geometry" />
        </mxCell>
        <mxCell id="t7Jry5lnLoS1j9qCJ-sH-40" style="edgeStyle=orthogonalEdgeStyle;rounded=0;orthogonalLoop=1;jettySize=auto;html=1;endArrow=none;endFill=0;sketch=1;fillColor=#f5f5f5;strokeColor=default;shadow=0;fontFamily=Comic Sans MS;fontStyle=1" parent="1" source="t7Jry5lnLoS1j9qCJ-sH-39" edge="1">
          <mxGeometry relative="1" as="geometry">
            <mxPoint x="390" y="430" as="targetPoint" />
            <Array as="points">
              <mxPoint x="460" y="480" />
              <mxPoint x="400" y="480" />
              <mxPoint x="400" y="430" />
            </Array>
          </mxGeometry>
        </mxCell>
        <mxCell id="t7Jry5lnLoS1j9qCJ-sH-39" value="Herb" style="whiteSpace=wrap;html=1;align=center;verticalAlign=middle;treeFolding=1;treeMoving=1;sketch=1;fillColor=#f5f5f5;strokeColor=default;shadow=0;fontColor=#333333;fontFamily=Comic Sans MS;fontStyle=1" parent="1" vertex="1" collapsed="1">
          <mxGeometry x="420" y="502.5" width="100" height="60" as="geometry" />
        </mxCell>
        <mxCell id="t7Jry5lnLoS1j9qCJ-sH-42" value="&lt;h1&gt;I&lt;/h1&gt;" style="text;html=1;strokeColor=none;fillColor=none;spacing=5;spacingTop=-20;whiteSpace=wrap;overflow=hidden;rounded=0;shadow=0;fontFamily=Comic Sans MS;align=center;verticalAlign=middle;" parent="1" vertex="1">
          <mxGeometry x="50" y="208.75" width="80" height="62.5" as="geometry" />
        </mxCell>
        <mxCell id="t7Jry5lnLoS1j9qCJ-sH-43" value="&lt;h1&gt;II&lt;/h1&gt;" style="text;html=1;strokeColor=none;fillColor=none;spacing=5;spacingTop=-20;whiteSpace=wrap;overflow=hidden;rounded=0;shadow=0;fontFamily=Comic Sans MS;align=center;verticalAlign=middle;" parent="1" vertex="1">
          <mxGeometry x="50" y="307.5" width="80" height="62.5" as="geometry" />
        </mxCell>
        <mxCell id="t7Jry5lnLoS1j9qCJ-sH-44" value="&lt;h1&gt;III&lt;/h1&gt;" style="text;html=1;strokeColor=none;fillColor=none;spacing=5;spacingTop=-20;whiteSpace=wrap;overflow=hidden;rounded=0;shadow=0;fontFamily=Comic Sans MS;align=center;verticalAlign=middle;" parent="1" vertex="1">
          <mxGeometry x="50" y="400" width="80" height="62.5" as="geometry" />
        </mxCell>
        <mxCell id="t7Jry5lnLoS1j9qCJ-sH-45" value="&lt;h1&gt;IV&lt;/h1&gt;" style="text;html=1;strokeColor=none;fillColor=none;spacing=5;spacingTop=-20;whiteSpace=wrap;overflow=hidden;rounded=0;shadow=0;fontFamily=Comic Sans MS;align=center;verticalAlign=middle;" parent="1" vertex="1">
          <mxGeometry x="50" y="500" width="80" height="62.5" as="geometry" />
        </mxCell>
        <mxCell id="kogVkbWzMQrJcFz0sPXQ-1" value="" style="endArrow=none;html=1;rounded=0;fillColor=#f5f5f5;strokeColor=default;" edge="1" parent="1" target="kogVkbWzMQrJcFz0sPXQ-2">
          <mxGeometry width="50" height="50" relative="1" as="geometry">
            <mxPoint x="520" y="530" as="sourcePoint" />
            <mxPoint x="590" y="530" as="targetPoint" />
          </mxGeometry>
        </mxCell>
        <mxCell id="kogVkbWzMQrJcFz0sPXQ-2" value="Margie" style="whiteSpace=wrap;html=1;align=center;verticalAlign=middle;treeFolding=1;treeMoving=1;sketch=1;fillColor=#f5f5f5;strokeColor=default;shadow=0;fontColor=#333333;fontFamily=Comic Sans MS;fontStyle=1" vertex="1" collapsed="1" parent="1">
          <mxGeometry x="560" y="500" width="100" height="60" as="geometry" />
        </mxCell>
      </root>
    </mxGraphModel>
  </diagram>
</mxfile>
